<mxfile host="app.diagrams.net" agent="Mozilla/5.0 (Windows NT 10.0; Win64; x64) AppleWebKit/537.36 (KHTML, like Gecko) Chrome/135.0.0.0 Safari/537.36" version="26.2.9">
  <diagram name="Page-1" id="BhNXsAob3M-ZvWZvR4Kw">
    <mxGraphModel dx="2255" dy="751" grid="1" gridSize="10" guides="1" tooltips="1" connect="1" arrows="1" fold="1" page="1" pageScale="1" pageWidth="827" pageHeight="1169" math="0" shadow="0">
      <root>
        <mxCell id="0" />
        <mxCell id="1" parent="0" />
        <mxCell id="Rw1ZJLWCuwb3OrgRGQ0Y-43" style="edgeStyle=orthogonalEdgeStyle;rounded=0;orthogonalLoop=1;jettySize=auto;html=1;" parent="1" source="Rw1ZJLWCuwb3OrgRGQ0Y-2" target="Rw1ZJLWCuwb3OrgRGQ0Y-40" edge="1">
          <mxGeometry relative="1" as="geometry" />
        </mxCell>
        <mxCell id="Rw1ZJLWCuwb3OrgRGQ0Y-2" value="INICIO" style="rounded=1;whiteSpace=wrap;html=1;fillColor=#d5e8d4;strokeColor=#82b366;" parent="1" vertex="1">
          <mxGeometry x="-160" y="250" width="140" height="60" as="geometry" />
        </mxCell>
        <mxCell id="Rw1ZJLWCuwb3OrgRGQ0Y-3" style="edgeStyle=orthogonalEdgeStyle;rounded=0;orthogonalLoop=1;jettySize=auto;html=1;" parent="1" source="Rw1ZJLWCuwb3OrgRGQ0Y-4" target="Rw1ZJLWCuwb3OrgRGQ0Y-6" edge="1">
          <mxGeometry relative="1" as="geometry" />
        </mxCell>
        <mxCell id="Rw1ZJLWCuwb3OrgRGQ0Y-4" value="&lt;b&gt;Configurar credenciales AWS CLI&lt;/b&gt;" style="rounded=1;whiteSpace=wrap;html=1;" parent="1" vertex="1">
          <mxGeometry x="200" y="250" width="100" height="60" as="geometry" />
        </mxCell>
        <mxCell id="Rw1ZJLWCuwb3OrgRGQ0Y-5" style="edgeStyle=orthogonalEdgeStyle;rounded=0;orthogonalLoop=1;jettySize=auto;html=1;" parent="1" source="Rw1ZJLWCuwb3OrgRGQ0Y-6" target="Rw1ZJLWCuwb3OrgRGQ0Y-8" edge="1">
          <mxGeometry relative="1" as="geometry">
            <mxPoint x="525" y="280" as="targetPoint" />
          </mxGeometry>
        </mxCell>
        <mxCell id="Rw1ZJLWCuwb3OrgRGQ0Y-6" value="&lt;b&gt;Configurar puerto por variable, debug y endpoint /health en app&lt;/b&gt;" style="rounded=1;whiteSpace=wrap;html=1;" parent="1" vertex="1">
          <mxGeometry x="350" y="250" width="190" height="60" as="geometry" />
        </mxCell>
        <mxCell id="Rw1ZJLWCuwb3OrgRGQ0Y-7" style="edgeStyle=orthogonalEdgeStyle;rounded=0;orthogonalLoop=1;jettySize=auto;html=1;" parent="1" source="Rw1ZJLWCuwb3OrgRGQ0Y-8" target="Rw1ZJLWCuwb3OrgRGQ0Y-23" edge="1">
          <mxGeometry relative="1" as="geometry" />
        </mxCell>
        <mxCell id="Rw1ZJLWCuwb3OrgRGQ0Y-8" value="&lt;b&gt;Configurar pruebas de aceptación con puerto por variable y crear smoke tests&lt;/b&gt;" style="rounded=1;whiteSpace=wrap;html=1;" parent="1" vertex="1">
          <mxGeometry x="562.5" y="250" width="175" height="60" as="geometry" />
        </mxCell>
        <mxCell id="Rw1ZJLWCuwb3OrgRGQ0Y-9" style="edgeStyle=orthogonalEdgeStyle;rounded=0;orthogonalLoop=1;jettySize=auto;html=1;" parent="1" source="Rw1ZJLWCuwb3OrgRGQ0Y-10" target="Rw1ZJLWCuwb3OrgRGQ0Y-25" edge="1">
          <mxGeometry relative="1" as="geometry" />
        </mxCell>
        <mxCell id="Rw1ZJLWCuwb3OrgRGQ0Y-10" value="&lt;b&gt;Identifica y obten variables de los recursos Rol, VPC y Subnets&lt;/b&gt;" style="rounded=1;whiteSpace=wrap;html=1;" parent="1" vertex="1">
          <mxGeometry x="790" y="330" width="120" height="60" as="geometry" />
        </mxCell>
        <mxCell id="Rw1ZJLWCuwb3OrgRGQ0Y-11" style="edgeStyle=orthogonalEdgeStyle;rounded=0;orthogonalLoop=1;jettySize=auto;html=1;" parent="1" source="Rw1ZJLWCuwb3OrgRGQ0Y-12" target="Rw1ZJLWCuwb3OrgRGQ0Y-14" edge="1">
          <mxGeometry relative="1" as="geometry" />
        </mxCell>
        <mxCell id="Rw1ZJLWCuwb3OrgRGQ0Y-12" value="&lt;b&gt;Verifica, corrije, ajusta hasta que todo CI corra.&lt;/b&gt;" style="rounded=1;whiteSpace=wrap;html=1;" parent="1" vertex="1">
          <mxGeometry x="420" y="330" width="105" height="60" as="geometry" />
        </mxCell>
        <mxCell id="Rw1ZJLWCuwb3OrgRGQ0Y-13" style="edgeStyle=orthogonalEdgeStyle;rounded=0;orthogonalLoop=1;jettySize=auto;html=1;" parent="1" source="Rw1ZJLWCuwb3OrgRGQ0Y-14" target="Rw1ZJLWCuwb3OrgRGQ0Y-16" edge="1">
          <mxGeometry relative="1" as="geometry" />
        </mxCell>
        <mxCell id="Rw1ZJLWCuwb3OrgRGQ0Y-14" value="&lt;b&gt;Despliega la infraestructura manualmente con AWS CLI y verifica&lt;/b&gt;" style="rounded=1;whiteSpace=wrap;html=1;" parent="1" vertex="1">
          <mxGeometry x="260" y="330" width="130" height="60" as="geometry" />
        </mxCell>
        <mxCell id="Rw1ZJLWCuwb3OrgRGQ0Y-15" style="edgeStyle=orthogonalEdgeStyle;rounded=0;orthogonalLoop=1;jettySize=auto;html=1;" parent="1" source="Rw1ZJLWCuwb3OrgRGQ0Y-16" target="Rw1ZJLWCuwb3OrgRGQ0Y-18" edge="1">
          <mxGeometry relative="1" as="geometry" />
        </mxCell>
        <mxCell id="Rw1ZJLWCuwb3OrgRGQ0Y-16" value="Crea los secretos de Github pasa AWS y el Stack de Cloudformation" style="rounded=1;whiteSpace=wrap;html=1;fontStyle=1" parent="1" vertex="1">
          <mxGeometry x="30" y="330" width="195" height="60" as="geometry" />
        </mxCell>
        <mxCell id="Rw1ZJLWCuwb3OrgRGQ0Y-17" style="edgeStyle=orthogonalEdgeStyle;rounded=0;orthogonalLoop=1;jettySize=auto;html=1;" parent="1" source="Rw1ZJLWCuwb3OrgRGQ0Y-18" target="Rw1ZJLWCuwb3OrgRGQ0Y-20" edge="1">
          <mxGeometry relative="1" as="geometry">
            <Array as="points">
              <mxPoint x="-100" y="450" />
            </Array>
          </mxGeometry>
        </mxCell>
        <mxCell id="Rw1ZJLWCuwb3OrgRGQ0Y-18" value="Renombra y modifica el ci-cd.yml (definición pipeline completo)" style="rounded=1;whiteSpace=wrap;html=1;fontStyle=1" parent="1" vertex="1">
          <mxGeometry x="-150" y="330" width="145" height="60" as="geometry" />
        </mxCell>
        <mxCell id="Rw1ZJLWCuwb3OrgRGQ0Y-19" style="edgeStyle=orthogonalEdgeStyle;rounded=0;orthogonalLoop=1;jettySize=auto;html=1;" parent="1" source="Rw1ZJLWCuwb3OrgRGQ0Y-20" target="Rw1ZJLWCuwb3OrgRGQ0Y-27" edge="1">
          <mxGeometry relative="1" as="geometry" />
        </mxCell>
        <mxCell id="Rw1ZJLWCuwb3OrgRGQ0Y-20" value="Sube los cambios GitHub y verifica el despliegue" style="rounded=1;whiteSpace=wrap;html=1;fontStyle=1" parent="1" vertex="1">
          <mxGeometry x="10" y="420" width="170" height="60" as="geometry" />
        </mxCell>
        <mxCell id="Rw1ZJLWCuwb3OrgRGQ0Y-21" value="FIN" style="rounded=1;whiteSpace=wrap;html=1;fillColor=#f8cecc;strokeColor=#b85450;" parent="1" vertex="1">
          <mxGeometry x="790" y="420" width="120" height="60" as="geometry" />
        </mxCell>
        <mxCell id="Rw1ZJLWCuwb3OrgRGQ0Y-49" style="edgeStyle=orthogonalEdgeStyle;rounded=0;orthogonalLoop=1;jettySize=auto;html=1;" parent="1" source="Rw1ZJLWCuwb3OrgRGQ0Y-23" target="Rw1ZJLWCuwb3OrgRGQ0Y-10" edge="1">
          <mxGeometry relative="1" as="geometry" />
        </mxCell>
        <mxCell id="Rw1ZJLWCuwb3OrgRGQ0Y-23" value="&lt;b&gt;Modifica archivo de CI para ignorar pruebas de smoke en unit tests&lt;/b&gt;" style="rounded=1;whiteSpace=wrap;html=1;" parent="1" vertex="1">
          <mxGeometry x="780" y="250" width="140" height="60" as="geometry" />
        </mxCell>
        <mxCell id="Rw1ZJLWCuwb3OrgRGQ0Y-24" style="edgeStyle=orthogonalEdgeStyle;rounded=0;orthogonalLoop=1;jettySize=auto;html=1;" parent="1" source="Rw1ZJLWCuwb3OrgRGQ0Y-25" target="Rw1ZJLWCuwb3OrgRGQ0Y-12" edge="1">
          <mxGeometry relative="1" as="geometry" />
        </mxCell>
        <mxCell id="Rw1ZJLWCuwb3OrgRGQ0Y-25" value="&lt;b&gt;Crea plantilla de Cloudformation template (IaC) y haz push de los cambios&lt;/b&gt;" style="rounded=1;whiteSpace=wrap;html=1;" parent="1" vertex="1">
          <mxGeometry x="555" y="330" width="190" height="60" as="geometry" />
        </mxCell>
        <mxCell id="Rw1ZJLWCuwb3OrgRGQ0Y-26" style="edgeStyle=orthogonalEdgeStyle;rounded=0;orthogonalLoop=1;jettySize=auto;html=1;entryX=0;entryY=0.5;entryDx=0;entryDy=0;" parent="1" source="Rw1ZJLWCuwb3OrgRGQ0Y-27" target="Rw1ZJLWCuwb3OrgRGQ0Y-29" edge="1">
          <mxGeometry relative="1" as="geometry" />
        </mxCell>
        <mxCell id="Rw1ZJLWCuwb3OrgRGQ0Y-27" value="&lt;b&gt;Realiza la validación final del pipeline y recursos&lt;/b&gt;" style="rounded=1;whiteSpace=wrap;html=1;" parent="1" vertex="1">
          <mxGeometry x="200" y="420" width="130" height="60" as="geometry" />
        </mxCell>
        <mxCell id="Rw1ZJLWCuwb3OrgRGQ0Y-28" style="edgeStyle=orthogonalEdgeStyle;rounded=0;orthogonalLoop=1;jettySize=auto;html=1;" parent="1" source="Rw1ZJLWCuwb3OrgRGQ0Y-29" target="Rw1ZJLWCuwb3OrgRGQ0Y-31" edge="1">
          <mxGeometry relative="1" as="geometry" />
        </mxCell>
        <mxCell id="Rw1ZJLWCuwb3OrgRGQ0Y-29" value="Entendiendo el monitoreo con ECS y ALB (/health)" style="rounded=1;whiteSpace=wrap;html=1;fontStyle=1" parent="1" vertex="1">
          <mxGeometry x="350" y="420" width="100" height="60" as="geometry" />
        </mxCell>
        <mxCell id="Rw1ZJLWCuwb3OrgRGQ0Y-47" style="edgeStyle=orthogonalEdgeStyle;rounded=0;orthogonalLoop=1;jettySize=auto;html=1;" parent="1" source="Rw1ZJLWCuwb3OrgRGQ0Y-31" target="Rw1ZJLWCuwb3OrgRGQ0Y-39" edge="1">
          <mxGeometry relative="1" as="geometry" />
        </mxCell>
        <mxCell id="Rw1ZJLWCuwb3OrgRGQ0Y-48" value="" style="edgeStyle=orthogonalEdgeStyle;rounded=0;orthogonalLoop=1;jettySize=auto;html=1;" parent="1" source="Rw1ZJLWCuwb3OrgRGQ0Y-31" target="Rw1ZJLWCuwb3OrgRGQ0Y-39" edge="1">
          <mxGeometry relative="1" as="geometry" />
        </mxCell>
        <mxCell id="Rw1ZJLWCuwb3OrgRGQ0Y-31" value="Construcción y envío del entregable" style="rounded=1;whiteSpace=wrap;html=1;fontStyle=1" parent="1" vertex="1">
          <mxGeometry x="470" y="420" width="130" height="60" as="geometry" />
        </mxCell>
        <mxCell id="Rw1ZJLWCuwb3OrgRGQ0Y-38" style="edgeStyle=orthogonalEdgeStyle;rounded=0;orthogonalLoop=1;jettySize=auto;html=1;" parent="1" source="Rw1ZJLWCuwb3OrgRGQ0Y-39" target="Rw1ZJLWCuwb3OrgRGQ0Y-21" edge="1">
          <mxGeometry relative="1" as="geometry" />
        </mxCell>
        <mxCell id="Rw1ZJLWCuwb3OrgRGQ0Y-39" value="Mejora opcional pero recomendada (nuevas funciones)" style="rounded=1;whiteSpace=wrap;html=1;fontStyle=1" parent="1" vertex="1">
          <mxGeometry x="620" y="420" width="140" height="60" as="geometry" />
        </mxCell>
        <mxCell id="Rw1ZJLWCuwb3OrgRGQ0Y-41" style="edgeStyle=orthogonalEdgeStyle;rounded=0;orthogonalLoop=1;jettySize=auto;html=1;" parent="1" source="Rw1ZJLWCuwb3OrgRGQ0Y-40" target="Rw1ZJLWCuwb3OrgRGQ0Y-4" edge="1">
          <mxGeometry relative="1" as="geometry" />
        </mxCell>
        <mxCell id="Rw1ZJLWCuwb3OrgRGQ0Y-40" value="&lt;b&gt;Prerequisitos:&lt;/b&gt;&lt;div&gt;&lt;b&gt;AWS CLI, Docker, AWS Academy Acc&lt;/b&gt;&lt;/div&gt;" style="rounded=1;whiteSpace=wrap;html=1;" parent="1" vertex="1">
          <mxGeometry x="30" y="250" width="130" height="60" as="geometry" />
        </mxCell>
      </root>
    </mxGraphModel>
  </diagram>
</mxfile>
